<?xml version="1.0" encoding="UTF-8"?><svg xmlns="http://www.w3.org/2000/svg" width="258.12" height="258.13" viewBox="634.3 0 258.12 258.13"><path d="M756.92,94.98l-14.57-.15,6.62-32.38h52.65c-.02-.06-.05-.13-.07-.19.01,0,.03,0,.04,0,.02.06.05.13.07.2h19.44v-.2h-3.08V26.58h3.08v-.04h-101.27l-20.3,97.1v.02s-1.49,7.08-1.49,7.08h52.99c9.91,0,17.88,1.6,23.92,4.78,6.03,3.19,10.4,7.46,13.1,12.81,2.28,4.52,3.59,9.42,3.94,14.68,0,0,0,0,0,.01.06.96.11,1.92.11,2.9,0,6.38-1.57,12.19-4.71,17.44-3.14,5.25-7.31,9.42-12.51,12.51-4.7,2.79-9.89,4.31-15.55,4.58h.44v35.68h-8.99c2.21.19,4.45.29,6.73.29,6.89,0,13.45-.93,19.68-2.74.02,0,.05-.01.07-.02,2.62-.77,5.19-1.67,7.7-2.76,8.49-3.68,15.97-8.76,22.45-15.23s11.53-13.98,15.16-22.52c1.26-2.96,2.28-5.98,3.1-9.07,0,0,0,0,0,0,1.55-5.82,2.34-11.87,2.34-18.15,0-13.15-3.02-25-9.05-35.55-6.04-10.55-14.4-18.96-25.1-25.24-5.38-3.16-11.17-5.58-17.37-7.28,0,0-.01,0-.01,0-6.12-1.67-12.64-2.63-19.56-2.88ZM708.69,126.48s0-.01-.01-.02c0,0,0,0,0,0,0,0,.01,0,.02,0,0,0,0,0,0,0,0,0,0,.01.01.02,0,0-.01,0-.02,0Z" style="fill:none;"/><path d="M755.67,200.46c-5.66-.27-10.86-1.79-15.59-4.58-5.25-3.09-9.45-7.26-12.58-12.51-3.14-5.25-4.71-11.06-4.71-17.44h-35.91c0,12.5,3,24.01,8.98,34.53h59.84s-.02,0-.02,0Z" style="fill:none;"/><path d="M776.49,97.86s.01,0,.01,0c11.63-5.71,22.26-11.45,31.83-16.98,0,0,0,0,0-.01-9.57,5.53-20.21,11.27-31.84,16.98Z" style="fill:none;"/><path d="M789.45,26.54c-3.39-10.32-6.09-18.92-8.05-25.28-.02,0-.04,0-.06,0,1.89,6.17,4.59,14.8,8.04,25.29h.07Z" style="fill:none;"/><path d="M808.6,81.42c14.57,39.12,33.77,85.45,56.23,127.42,0-.01.02-.02.03-.03-22.45-41.96-41.65-88.26-56.23-127.4,0,0-.02,0-.03.01Z" style="fill:none;"/><path d="M806.82,233.16c5.73-3.04,29.13-36.02,29.13-36.02l2.95-3.97s-.02-.02-.03-.02l-2.94,3.96s-23.39,32.96-29.13,36.02h0s-.02,0-.02,0c-4.74,2.51-13.19,16.41-15.99,21.13,0,0,0,0,0,.01-.25.44-.45.79-.6,1.05.36-.08.73-.16,1.09-.24-.16-.25-.33-.49-.49-.74,2.74-4.65,11.27-18.68,16.03-21.19Z" style="fill:none;"/><path d="M792,163.02c-.35-5.26-1.66-10.16-3.94-14.68-2.7-5.35-7.07-9.62-13.1-12.81-6.04-3.19-14.01-4.78-23.92-4.78h-28.65c21.29,8.28,56.17,26.3,66.55,30.8.9.39,1.94.89,3.06,1.47Z" style="fill:#ffcc04;"/><path d="M806.82,233.16c-4.76,2.52-13.28,16.55-16.03,21.19.16.25.33.49.49.74,29.61-6.53,55.41-23.23,73.54-46.26-22.46-41.97-41.65-88.29-56.23-127.42-.01,0-.03.02-.04.02h-.02c-.07-.19-.14-.37-.21-.56-9.57,5.53-20.2,11.27-31.83,16.98,6.2,1.69,11.99,4.12,17.37,7.28,10.69,6.28,19.06,14.7,25.1,25.24,6.03,10.55,9.05,22.4,9.05,35.55,0,6.28-.79,12.33-2.34,18.15,7.6,5.13,13.2,9.07,13.2,9.07h0s.03.02.03.02" style="fill:#ffcc04;"/><path d="M719.83,26.54h69.54c-3.45-10.49-6.15-19.12-8.04-25.29-5.88-.82-11.88-1.25-17.98-1.25-62.62,0-114.82,44.6-126.58,103.76,23.61,7.52,49.01,15.58,62.76,19.88l20.3-97.1Z" style="fill:#ec2c92;"/><path d="M748.98,62.45l-6.62,32.38,14.57.15c6.92.24,13.44,1.2,19.56,2.88,11.63-5.71,22.27-11.45,31.84-16.98-2.37-6.35-4.59-12.51-6.7-18.42h-52.65Z" style="fill:#ec2c92;"/><path d="M835.93,197.12l2.94-3.96c-.21-.15-5.74-4.03-13.2-9.06-.82,3.09-1.85,6.11-3.1,9.07-3.63,8.54-8.68,16.04-15.16,22.52s-13.96,11.55-22.45,15.23c-2.51,1.09-5.08,1.99-7.7,2.76,4.48,6.86,9,13.75,13.52,20.6" style="fill:#ffcc04;"/><path d="M759.34,200.46c5.66-.27,10.84-1.79,15.55-4.58,5.2-3.09,9.37-7.26,12.51-12.51,3.14-5.25,4.71-11.06,4.71-17.44,0-.98-.04-1.94-.11-2.9-1.11-.57-2.14-1.07-3.03-1.46-10.39-4.5-45.33-22.55-66.61-30.82h-10.96c12.16,19.37,27.54,43.68,44.3,69.71h3.65Z" style="fill:#ffcc04;"/><path d="M790.79,254.27s-.02.04-.04.06c-4.54-6.87-9.06-13.77-13.55-20.64-6.24,1.81-12.79,2.74-19.68,2.74-2.28,0-4.52-.1-6.73-.29h-59.52c20.59,13.89,45.39,21.99,72.09,21.99,9.21,0,18.18-.97,26.85-2.8.15-.26.35-.6.6-1.05,0,0,0,0,0-.01Z" style="fill:#1b8ece;"/><path d="M755.67,200.46c-16.76-26.04-32.14-50.34-44.3-69.71h-13.31l1.48-7.08c-13.74-4.3-39.14-12.37-62.76-19.88-1.62,8.18-2.48,16.63-2.48,25.29,0,26.4,7.93,50.95,21.54,71.4" style="fill:#1b8ece;"/><path d="M699.53,123.64c-13.75-4.3-39.15-12.36-62.76-19.88,0,0,0,.01,0,.02,23.62,7.51,49.02,15.58,62.76,19.88v-.02Z" style="fill:#1b8ece;"/><path d="M711.39,130.75h-.02c12.16,19.37,27.54,43.68,44.3,69.71,0,0,.02,0,.02,0-16.76-26.04-32.14-50.34-44.3-69.71Z" style="fill:#1b8ece;"/><path d="M777.2,233.69c4.49,6.87,9.02,13.77,13.55,20.64.01-.02.02-.04.04-.06-4.52-6.85-9.04-13.74-13.52-20.6-.02,0-.05.01-.07.02Z" style="fill:#1b8ece;"/><path d="M808.62,81.4c14.57,39.13,33.78,85.44,56.23,127.4,17.27-21.95,27.57-49.64,27.57-79.74,0-24.46-6.81-47.32-18.63-66.81h-34.63c-8.48,5.77-18.69,12.29-30.53,19.15Z" style="fill:#3d9946;"/><path d="M838.07,62.26h-16.98v.2h-19.44c2.12,5.91,4.36,12.06,6.7,18.4-.01,0-.03.01-.04.02,0,0,0,0,0,.01.02-.01.04-.02.06-.03.07.19.14.38.21.57,0,0,.02,0,.03-.01-.07-.19-.14-.38-.21-.57,11.44-6.63,21.35-12.94,29.66-18.57Z" style="fill:#65b345;"/><path d="M821.1,26.54v.04h20.7c-17.23-13.21-37.88-22.17-60.4-25.32,1.96,6.36,4.66,14.96,8.05,25.28h31.65Z" style="fill:#65b345;"/><path d="M808.33,80.89c.07.19.14.37.21.56h.02s.03-.02.04-.02c-.07-.19-.14-.38-.21-.57-.02.01-.04.02-.06.03Z" style="fill:#65b345;"/><path d="M808.33,80.88s.03-.01.04-.02c-2.35-6.34-4.58-12.49-6.7-18.4h-.04c2.12,5.91,4.34,12.07,6.7,18.42Z" style="fill:#65b345;"/><path d="M808.41,80.83c.07.19.14.38.21.57,11.84-6.86,22.05-13.38,30.53-19.15h-1.08c-8.32,5.63-18.23,11.95-29.66,18.57Z" style="fill:#65b345;"/><path d="M708.69,126.46s-.01,0-.02,0c0,0,0,0,0,0,0,0,.01,0,.02,0,0,0,0,0,0,0Z" style="fill:#fff;"/><path d="M708.68,126.46s0,.01.01.02c0,0,.01,0,.02,0,0,0,0-.01-.01-.02,0,0-.01,0-.02,0Z" style="fill:#fff;"/><path d="M801.55,62.27c.02.06.05.13.07.19h.04c-.02-.06-.05-.13-.07-.2-.01,0-.03,0-.04,0Z" style="fill:#fff;"/><path d="M757.51,200.52c.61,0,1.22-.03,1.82-.06h-3.65c.6.03,1.21.06,1.82.06Z" style="fill:#fff;"/><g id="b"><path d="M25.97,46.26v15.45h20.08v17.95h-20.08v55.62H8.02v-55.62H0v-17.95h8.02v-15.45c0-4.22,1.04-8.08,3.13-11.59,2.08-3.51,4.89-6.3,8.42-8.39,3.53-2.08,7.43-3.13,11.7-3.13,3.09,0,6.16.64,9.2,1.91,3.04,1.28,5.74,3.24,8.09,5.89l-12.95,12.65c-.44-.83-1.07-1.46-1.88-1.88-.81-.42-1.63-.62-2.46-.62-1.42,0-2.66.5-3.71,1.51-1.05,1.01-1.58,2.22-1.58,3.64Z" style="fill:#004b91;"/><path d="M114.25,61.71h17.95v73.57h-17.95l-.81-9.12c-2.01,3.29-4.67,5.95-7.98,7.98-3.31,2.04-7.22,3.05-11.73,3.05-5.44,0-10.54-1.03-15.3-3.09-4.76-2.06-8.94-4.9-12.54-8.53-3.61-3.63-6.43-7.82-8.46-12.58-2.04-4.76-3.05-9.86-3.05-15.3s.97-10.18,2.91-14.79c1.94-4.61,4.65-8.66,8.13-12.14s7.5-6.2,12.07-8.17c4.56-1.96,9.46-2.94,14.71-2.94,4.86,0,9.21,1.08,13.06,3.24,3.85,2.16,7.12,4.9,9.82,8.24l-.81-9.42ZM93.28,119.9c3.83,0,7.21-.96,10.15-2.87,2.94-1.91,5.25-4.5,6.92-7.76,1.67-3.26,2.5-6.85,2.5-10.78s-.83-7.59-2.5-10.85c-1.67-3.26-3.99-5.85-6.95-7.76-2.97-1.91-6.34-2.87-10.12-2.87s-7.22.97-10.34,2.91c-3.12,1.94-5.59,4.52-7.43,7.76-1.84,3.24-2.76,6.84-2.76,10.81s.93,7.58,2.8,10.81c1.86,3.24,4.35,5.81,7.47,7.72,3.11,1.91,6.54,2.87,10.26,2.87Z" style="fill:#004b91;"/><path d="M146.91,135.28V24.93h17.95v110.35h-17.95Z" style="fill:#004b91;"/><path d="M182.52,135.28V61.71h17.95v6.55c2.5-2.65,5.49-4.75,8.98-6.29,3.48-1.54,7.23-2.32,11.26-2.32,5.1,0,9.8,1.2,14.09,3.6,4.29,2.4,7.71,5.62,10.26,9.64,2.6-4.02,6.03-7.23,10.3-9.64,4.27-2.4,8.95-3.6,14.05-3.6,5.39,0,10.29,1.31,14.68,3.94,4.39,2.62,7.9,6.13,10.52,10.52,2.62,4.39,3.94,9.28,3.94,14.68v46.49h-17.95v-41.71c0-2.84-.7-5.46-2.1-7.83-1.4-2.38-3.26-4.29-5.59-5.74-2.33-1.45-4.94-2.17-7.83-2.17s-5.51.7-7.83,2.1c-2.33,1.4-4.21,3.27-5.63,5.63-1.42,2.35-2.13,5.03-2.13,8.02v41.71h-17.95v-41.71c0-2.99-.69-5.67-2.06-8.02-1.37-2.35-3.24-4.23-5.59-5.63-2.35-1.4-4.98-2.1-7.87-2.1s-5.44.72-7.8,2.17c-2.35,1.45-4.23,3.36-5.63,5.74-1.4,2.38-2.1,4.99-2.1,7.83v41.71h-17.95Z" style="fill:#004b91;"/><path d="M345.62,137.19c-6.77,0-12.94-1.74-18.5-5.22-5.57-3.48-10-8.15-13.32-14.01-3.31-5.86-4.97-12.35-4.97-19.46,0-5.39.96-10.43,2.87-15.12,1.91-4.68,4.55-8.8,7.91-12.36,3.36-3.56,7.27-6.34,11.73-8.35,4.46-2.01,9.22-3.02,14.27-3.02,6.77,0,12.94,1.74,18.5,5.22s10.01,8.17,13.32,14.05c3.31,5.88,4.97,12.41,4.97,19.57,0,5.35-.96,10.35-2.87,15.01-1.91,4.66-4.55,8.77-7.91,12.32-3.36,3.56-7.26,6.34-11.7,8.35-4.44,2.01-9.21,3.02-14.31,3.02ZM345.62,119.24c3.58,0,6.79-.96,9.64-2.87,2.84-1.91,5.09-4.44,6.73-7.58,1.64-3.14,2.46-6.57,2.46-10.3s-.85-7.32-2.54-10.48c-1.69-3.16-3.97-5.69-6.84-7.58-2.87-1.89-6.02-2.83-9.45-2.83s-6.72.96-9.56,2.87c-2.84,1.91-5.1,4.46-6.77,7.65-1.67,3.19-2.5,6.65-2.5,10.37s.86,7.38,2.58,10.52c1.72,3.14,4.01,5.63,6.88,7.47,2.87,1.84,6,2.76,9.38,2.76Z" style="fill:#004b91;"/><path d="M392.7,108.06v-46.35h17.95v41.64c0,2.89.71,5.53,2.13,7.91,1.42,2.38,3.32,4.27,5.7,5.66,2.38,1.4,4.99,2.1,7.83,2.1s5.59-.7,7.95-2.1c2.35-1.4,4.24-3.29,5.67-5.66,1.42-2.38,2.13-5.01,2.13-7.91v-41.64h17.95l.07,73.57h-17.95l-.07-6.69c-2.55,2.65-5.57,4.74-9.05,6.29s-7.21,2.32-11.18,2.32c-5.35,0-10.23-1.31-14.64-3.94-4.41-2.62-7.93-6.13-10.56-10.52-2.62-4.39-3.94-9.28-3.94-14.68Z" style="fill:#004b91;"/><path d="M514.23,79.66h-14.27v55.62h-17.95v-55.62h-10.89v-17.95h10.89v-23.1h17.95v23.1h14.27v17.95Z" style="fill:#004b91;"/><path d="M594.86,88.78v46.49h-17.95v-41.79c0-2.89-.71-5.53-2.13-7.91-1.42-2.38-3.32-4.27-5.7-5.66-2.38-1.4-5.01-2.1-7.91-2.1s-5.53.7-7.91,2.1c-2.38,1.4-4.27,3.29-5.66,5.66-1.4,2.38-2.1,5.02-2.1,7.91v41.79h-17.95l-.07-110.35h17.95l.07,43.33c2.5-2.65,5.49-4.75,8.97-6.29s7.23-2.32,11.26-2.32c5.35,0,10.23,1.31,14.64,3.94,4.41,2.62,7.93,6.13,10.56,10.52,2.62,4.39,3.94,9.28,3.94,14.68Z" style="fill:#004b91;"/></g><g id="c"><path d="M267.98,165.15h14.31l25.92,71.28h-13.19l-4.58-12.63h-30.55l-4.58,12.63h-13.19l25.86-71.28ZM264.42,211.38h21.44l-10.74-29.38-10.69,29.38Z" style="fill:#1b8ece;"/><path d="M338.75,236.43v-71.28h42.11v12.42h-29.68v14.46h24.79v12.42h-24.79v31.97h-12.42Z" style="fill:#1b8ece;"/><path d="M462.32,165.15v12.42h-21.79v58.86h-12.42v-58.86h-21.79v-12.42h56.01Z" style="fill:#1b8ece;"/><path d="M492.87,236.43v-71.28h44.7v12.42h-32.28v14.46h25.61v12.42h-25.61v19.55h32.28v12.42h-44.7Z" style="fill:#1b8ece;"/><path d="M569.13,236.43v-71.28h27.34c3.87,0,7.37.97,10.49,2.9s5.6,4.52,7.43,7.76c1.83,3.24,2.75,6.83,2.75,10.77,0,3.22-.59,6.19-1.76,8.88-1.17,2.7-2.8,5.03-4.89,7-2.09,1.97-4.49,3.46-7.2,4.48l17.06,29.48h-14.31l-16.5-28.36h-7.99v28.36h-12.42ZM581.56,195.65h13.49c1.76,0,3.38-.44,4.84-1.32,1.46-.88,2.63-2.07,3.51-3.56.88-1.49,1.32-3.16,1.32-4.99s-.44-3.55-1.32-5.04c-.88-1.49-2.05-2.68-3.51-3.56-1.46-.88-3.07-1.32-4.84-1.32h-13.49v19.81Z" style="fill:#1b8ece;"/></g></svg>